<svg width="30" height="22" viewBox="0 0 30 22" fill="none" xmlns="http://www.w3.org/2000/svg">
<path d="M24.2071 6.70701L19.9141 11L24.2071 15.293C24.5981 15.684 24.5981 16.316 24.2071 16.707C24.0121 16.902 23.7561 17 23.5001 17C23.2441 17 22.9881 16.902 22.7931 16.707L18.5001 12.414L14.2071 16.707C14.0121 16.902 13.7561 17 13.5001 17C13.2441 17 12.9881 16.902 12.7931 16.707C12.4021 16.316 12.4021 15.684 12.7931 15.293L17.0861 11L12.7931 6.70701C12.4021 6.31601 12.4021 5.68401 12.7931 5.29301C13.1841 4.90201 13.8161 4.90201 14.2071 5.29301L18.5001 9.58601L22.7931 5.29301C23.1841 4.90201 23.8161 4.90201 24.2071 5.29301C24.5981 5.68401 24.5981 6.31601 24.2071 6.70701Z" fill="currentColor"/>
<path fill-rule="evenodd" clip-rule="evenodd" d="M11.3285 0C10.5329 0 9.76981 0.316071 9.2072 0.87868L1.67141 8.41448C0.521014 9.56487 0.497201 11.4225 1.61773 12.602L9.18372 20.5662C9.7501 21.1624 10.5364 21.5 11.3587 21.5H26.5001C28.1569 21.5 29.5001 20.1569 29.5001 18.5V3C29.5001 1.34315 28.1569 0 26.5001 0H11.3285ZM10.6214 2.29289C10.809 2.10536 11.0633 2 11.3285 2H26.5001C27.0524 2 27.5001 2.44772 27.5001 3V18.5C27.5001 19.0523 27.0524 19.5 26.5001 19.5H11.3587C11.0846 19.5 10.8225 19.3875 10.6337 19.1887L3.06773 11.2245C2.69422 10.8314 2.70216 10.2122 3.08562 9.82869L10.6214 2.29289Z" fill="currentColor"/>
</svg>
