<svg version="1.1" id="Capa_1" xmlns="http://www.w3.org/2000/svg" xmlns:xlink="http://www.w3.org/1999/xlink" x="0px" y="0px"
	 viewBox="0 0 480 480" style="fill:currentColor;" xml:space="preserve">
<path id="XMLID_1268_" d="M268.542,360.052l0.705,19.568c0.235,6.538,3.406,12.492,8.698,16.337
	c5.292,3.846,11.936,5.02,18.227,3.225L315,393.806l18.828,5.376c1.932,0.551,3.896,0.823,5.844,0.823
	c4.398,0,8.715-1.382,12.382-4.047c5.293-3.845,8.463-9.8,8.698-16.337l0.705-19.568l10.931-16.245
	c3.652-5.428,4.587-12.109,2.566-18.331c-2.022-6.222-6.706-11.077-12.851-13.322l-18.392-6.717l-12.072-15.416
	c-4.033-5.15-10.099-8.104-16.64-8.104s-12.607,2.954-16.64,8.104l-12.072,15.416l-18.392,6.717
	c-6.145,2.245-10.829,7.1-12.85,13.322c-2.021,6.222-1.086,12.903,2.566,18.33L268.542,360.052z M274.066,331.657
	c0.171-0.526,0.562-0.669,0.69-0.716l21.074-7.697c1.753-0.64,3.292-1.758,4.442-3.228l13.833-17.664
	c0.084-0.108,0.341-0.436,0.894-0.436s0.81,0.328,0.894,0.436l13.833,17.664c1.15,1.469,2.689,2.587,4.442,3.228l21.074,7.697
	c0.128,0.047,0.52,0.19,0.69,0.716s-0.062,0.871-0.138,0.985l-12.525,18.614c-1.042,1.548-1.63,3.357-1.697,5.222l-0.808,22.422
	c-0.005,0.137-0.02,0.552-0.467,0.877c-0.447,0.326-0.848,0.211-0.979,0.173l-21.573-6.16c-0.897-0.256-1.821-0.384-2.746-0.384
	s-1.849,0.128-2.746,0.384l-21.573,6.16c-0.13,0.038-0.531,0.152-0.979-0.173c-0.447-0.325-0.462-0.74-0.467-0.877l-0.808-22.421
	c-0.067-1.865-0.655-3.674-1.697-5.222l-12.525-18.614C274.128,332.528,273.895,332.183,274.066,331.657z M450,150H282.858
	l14.598-127.729c0.646-5.657-1.157-11.337-4.947-15.586S283.278,0,277.585,0H20C14.306,0,8.867,2.437,5.076,6.685
	s-5.594,9.929-4.947,15.585L38.792,360.57V450c0,16.542,13.458,30,30,30H440c22.056,0,40-17.944,40-40V180
	C480,163.458,466.542,150,450,150z M20,20h257.584l-14.857,130h-55.842c1.261-4.88,1.908-9.922,1.908-15
	c0-2.129-0.112-4.251-0.335-6.357c14.614-4.205,25.336-17.695,25.336-33.643c0-19.299-15.701-35-35-35
	c-13.086,0-24.7,7.282-30.694,18.192c-12.381-4.208-26.231-4.208-38.612,0C123.492,67.282,111.878,60,98.792,60
	c-19.299,0-35,15.701-35,35c0,15.948,10.721,29.438,25.335,33.643c-0.223,2.106-0.335,4.227-0.335,6.357c0,33.084,26.916,60,60,60
	c0.402,0,0.804-0.004,1.207-0.012V350H57.715L20,20z M68.792,460c-5.514,0-10-4.486-10-10v-80h91.207v70
	c0,7.28,1.956,14.113,5.368,20H68.792z M150.421,174.966c-0.543,0.023-1.087,0.034-1.629,0.034c-22.056,0-40-17.944-40-40
	c0-4.121,0.627-8.189,1.863-12.092c1.012-3.194,0.356-6.683-1.745-9.292c-1.908-2.369-4.778-3.728-7.787-3.728
	c-0.305,0-1.889,0.112-2.331,0.112c-8.271,0-15-6.729-15-15s6.729-15,15-15c7.532,0,13.925,5.625,14.872,13.083
	c0.422,3.332,2.489,6.229,5.502,7.713c3.013,1.484,6.569,1.356,9.468-0.34C134.735,96.887,141.706,95,148.793,95
	c7.086,0,14.057,1.887,20.157,5.456c2.898,1.696,6.456,1.824,9.468,0.34c3.013-1.484,5.08-4.381,5.502-7.713
	C184.867,85.625,191.26,80,198.793,80c8.271,0,15,6.729,15,15s-6.729,15-15,15c-0.443,0-0.905-0.023-1.412-0.07
	c-3.342-0.308-6.605,1.076-8.707,3.686s-2.757,6.098-1.745,9.292c1.237,3.904,1.864,7.973,1.864,12.092c0,5.156-1,10.254-2.922,15
	h-5.872C165.172,150,152.823,160.813,150.421,174.966z M460,440c0,11.028-8.972,20-20,20H189.999c-11.028,0-20-8.972-20-20V250H460
	V440z M460,230H169.999v-50c0-5.514,4.486-10,10-10h11.896c0.121,0.002,0.243,0.002,0.364,0h79.267c0.091,0.001,0.181,0.001,0.272,0
	H450c5.514,0,10,4.486,10,10V230z"/>
<g>
</g>
<g>
</g>
<g>
</g>
<g>
</g>
<g>
</g>
<g>
</g>
<g>
</g>
<g>
</g>
<g>
</g>
<g>
</g>
<g>
</g>
<g>
</g>
<g>
</g>
<g>
</g>
<g>
</g>
</svg>
