<svg version="1.1" id="Layer_1" xmlns="http://www.w3.org/2000/svg" xmlns:xlink="http://www.w3.org/1999/xlink" x="0px" y="0px"
	 viewBox="0 0 512 512" style="fill:currentColor;" xml:space="preserve">
<g>
	<g>
		<path d="M400.87,26.487c-7.663,0-15.343,0.094-22.784,0.179c-6.818,0.085-13.449,0.162-19.686,0.162
			c-21.914,0-51.84,13.295-101.24,45.355c-0.546-0.452-1.092-0.905-1.647-1.357C234.368,53.308,202.402,26.829,153.6,26.829
			c-8.636,0-18.022-0.29-27.64-0.58c-10.633-0.324-21.53-0.649-32.06-0.649c-24.789,0-41.856,1.852-55.339,6.008
			c-4.983,1.536-9.173,3.422-12.962,5.47V12.8C25.6,5.726,19.874,0,12.8,0C5.726,0,0,5.726,0,12.8v486.4
			c0,7.074,5.726,12.8,12.8,12.8c7.074,0,12.8-5.726,12.8-12.8V147.354c26.854,42.556,72.798,84.275,128,84.275
			c25.617,0,42.001-7.552,56.448-14.208c13.261-6.11,24.713-11.392,45.952-11.392s32.691,5.282,45.952,11.392
			c14.447,6.664,30.831,14.208,56.448,14.208c88.738,0,153.6-107.785,153.6-153.6C512,26.487,439.706,26.487,400.87,26.487z
			 M358.4,206.029c-42.069,0-51.2-25.6-102.4-25.6s-60.331,25.6-102.4,25.6c-70.69,0-128-92.655-128-128
			C25.6,55.245,57.498,51.2,93.901,51.2c20.062,0,41.506,1.229,59.699,1.229c51.2,0,79.07,35.533,102.4,51.2
			c23.33-15.667,76.8-51.2,102.4-51.2c13.056,0,27.785-0.341,42.47-0.341c42.906,0,85.53,2.935,85.53,25.941
			C486.4,113.374,429.09,206.029,358.4,206.029z"/>
	</g>
</g>
<g>
	<g>
		<path d="M233.216,116.625c-1.297-0.998-32.154-24.602-62.097-35.507c-11.452-4.173-26.01-6.281-43.264-6.281
			c-22.076,0-41.856,3.439-42.684,3.584c-8.67,1.527-15.949,7.398-19.268,15.548c-3.319,8.149-2.227,17.434,2.901,24.585
			c5.555,7.748,34.927,47.01,67.294,58.795c6.741,2.449,14.285,3.695,22.426,3.695c32.026,0,67.695-19.601,71.663-21.828
			c7.484-4.215,12.348-11.913,12.962-20.48C243.746,130.167,240.017,121.865,233.216,116.625z M158.515,155.443
			c-4.872,0-9.515-0.64-13.67-2.15c-26.573-9.677-55.245-49.664-55.245-49.664s18.159-3.191,38.246-3.191
			c11.955,0,24.593,1.135,34.509,4.736c26.573,9.668,55.245,31.735,55.245,31.735S184.747,155.443,158.515,155.443z"/>
	</g>
</g>
<g>
	<g>
		<path d="M446.106,93.969c-3.328-8.158-10.598-14.029-19.268-15.548c-0.828-0.145-20.608-3.584-42.684-3.584
			c-17.254,0-31.812,2.116-43.273,6.281c-29.943,10.897-60.8,34.509-62.097,35.507c-6.81,5.24-10.53,13.542-9.924,22.11
			c0.614,8.568,5.478,16.256,12.962,20.48c3.959,2.236,39.629,21.828,71.663,21.828c8.141,0,15.684-1.246,22.426-3.695
			c32.367-11.785,61.73-51.046,67.294-58.795C448.333,111.403,449.425,102.118,446.106,93.969z M367.155,153.284
			c-4.156,1.51-8.806,2.15-13.67,2.15c-26.231,0-59.085-18.526-59.085-18.526s28.672-22.067,55.245-31.735
			c9.907-3.61,22.554-4.736,34.509-4.736c20.096,0,38.246,3.191,38.246,3.191S393.728,143.616,367.155,153.284z"/>
	</g>
</g>
<g>
</g>
<g>
</g>
<g>
</g>
<g>
</g>
<g>
</g>
<g>
</g>
<g>
</g>
<g>
</g>
<g>
</g>
<g>
</g>
<g>
</g>
<g>
</g>
<g>
</g>
<g>
</g>
<g>
</g>
</svg>
